<?xml version="1.0" encoding="utf-8"?>
<?xml-stylesheet type="text/xsl" href="rss1.xsl"?>
<rss version="2.0" xmlns:atom="http://www.w3.org/2005/Atom" xmlns:content="http://purl.org/rss/1.0/modules/content/" xmlns:dc="http://purl.org/dc/elements/1.1/" xmlns:media="http://search.yahoo.com/mrss/">
<channel>
 <title>Getty</title>
 <link>http://www.gettyimg.com/</link>
 <atom:link href="http://www.gettyimg.com/" rel="self" type="application/rss+xml" />

 
                <item>
                <title><![CDATA[【Apple Music】WEB-RiP - Princesa Alba - Te Lo Prometo (Visualizer) 'Apple.Music.Web.1080-fstambuk']]></title>
                <link><![CDATA[https://sharemania.us/threads/princesa-alba-te-lo-prometo-visualizer-apple-music-web-1080-fstambuk.246898/]]></link>
                <description><![CDATA[<article>
<blockquote class="messageText SelectQuoteContainer ugc baseHtml">
<div style="text-align: center"><img src="https://i.ibb.co/PYhzRVB/Princesa-Alba-Te-Lo-Prometo-Visualizer-Apple-Music-Web-4-K-fstambuk-VTM.gif" class="bbCodeImage LbImage" alt="[​IMG]" data-url="https://i.ibb.co/PYhzRVB/Princesa-Alba-Te-Lo-Prometo-Visualizer-Apple-Music-Web-4-K-fstambuk-VTM.gif" style=""><br>
​</div>
<div class="ToggleTriggerAnchor bbCodeSpoilerContainer">
<button type="button" class="button bbCodeSpoilerButton ToggleTrigger Tooltip JsOnly" data-target="> .SpoilerTarget"><span>Spoiler: <span class="SpoilerTitle">Apple Music</span></span></button>
<div class="SpoilerTarget bbCodeSpoilerText">
<div class="bbCodeBlock bbCodeCode">
<div class="type">Code:</div>
<pre>General
Complete name                            : Princesa Alba - Te Lo Prometo (Visualizer) 'Apple.Music.Web.4K-fstambuk'.m4v
Format                                   : MPEG-4
Format profile                           : Base Media
Codec ID                                 : isom (isom/iso2/mp41)
File size                                : 282 MiB
Duration                                 : 3 min 11 s
Overall bit rate                         : 12.4 Mb/s
Frame rate                               : 23.976 FPS
Movie name                               : Te Lo Prometo (Visualizer)
Performer                                : Princesa Alba
Genre                                    : Pop
ContentType                              : Music Video
Recorded date                            : 2024-06-16 07:00:00 UTC
Copyright                                : ℗ (P) 2024 Sony Music Entertainment Chile S.A.
Cover                                    : Yes
Rating                                   : None
GenreID                                  : 1614
AppleStoreCountry                        : United States
AlbumTitleID                             : 1265324498
AppleStoreCatalogID                      : 1750590165

Video
ID                                       : 1
Format                                   : HEVC
Format/Info                              : High Efficiency Video Coding
Format profile                           : Main 10@L5@High
Codec ID                                 : hvc1
Codec ID/Info                            : High Efficiency Video Coding
Duration                                 : 3 min 11 s
Bit rate                                 : 12.1 Mb/s
Width                                    : 2 876 pixels
Height                                   : 2 160 pixels
Display aspect ratio                     : 4:3
Frame rate mode                          : Constant
Frame rate                               : 23.976 (24000/1001) FPS
Color space                              : YUV
Chroma subsampling                       : 4:2:0
Bit depth                                : 10 bits
Scan type                                : Progressive
Bits/(Pixel*Frame)                       : 0.081
Stream size                              : 276 MiB (98%)
Title                                    : Core Media Video
Color range                              : Limited
Color primaries                          : BT.709
Transfer characteristics                 : BT.709
Matrix coefficients                      : BT.709
Codec configuration box                  : hvcC

Audio
ID                                       : 2
Format                                   : AAC LC
Format/Info                              : Advanced Audio Codec Low Complexity
Codec ID                                 : 2 / 40 / mp4a-40-2
Duration                                 : 3 min 11 s
Bit rate mode                            : Constant
Bit rate                                 : 257 kb/s
Channel(s)                               : 2 channels
Channel layout                           : L R
Sampling rate                            : 48.0 kHz
Frame rate                               : 46.875 FPS (1024 SPF)
Compression mode                         : Lossy
Stream size                              : 5.86 MiB (2%)
Title                                    : Core Media Audio
Default                                  : Yes
Alternate group                          : 1

</pre>
</div><div style="text-align: center">​</div></div>
</div><div style="text-align: center"><br>
<div class="bbCodeBlock bbCodeVfcHH HiddenContent">
<div class="attribution type">Hidden Content:</div>
<blockquote>You must reply before you can see the hidden data contained here.</blockquote>
</div></div>
<div class="messageTextEndMarker">&nbsp;</div>
</blockquote>
</article>]]></description>
                <author><![CDATA[fstambuk]]></author>
                </item>

                
                <item>
                <title><![CDATA[【Apple Music】WEB-RiP - SUNMI - Balloon in Love 'Apple.Music.Web.1080-fstambuk']]></title>
                <link><![CDATA[https://sharemania.us/threads/sunmi-balloon-in-love-apple-music-web-1080-fstambuk.246899/]]></link>
                <description><![CDATA[<article>
<blockquote class="messageText SelectQuoteContainer ugc baseHtml">
<div style="text-align: center"><img src="https://i.ibb.co/p1SbSC2/SUNMI-Balloon-in-Love-Apple-Music-Web-1080-fstambuk-VTM.gif" class="bbCodeImage LbImage" alt="[​IMG]" data-url="https://i.ibb.co/p1SbSC2/SUNMI-Balloon-in-Love-Apple-Music-Web-1080-fstambuk-VTM.gif" style=""><br>
​</div>
<div class="ToggleTriggerAnchor bbCodeSpoilerContainer">
<button type="button" class="button bbCodeSpoilerButton ToggleTrigger Tooltip JsOnly" data-target="> .SpoilerTarget"><span>Spoiler: <span class="SpoilerTitle">Apple Music</span></span></button>
<div class="SpoilerTarget bbCodeSpoilerText">
<div class="bbCodeBlock bbCodeCode">
<div class="type">Code:</div>
<pre>General
Complete name                            : SUNMI - Balloon in Love 'Apple.Music.Web.1080-fstambuk'.m4v
Format                                   : MPEG-4
Codec ID                                 : M4V  (M4V /isom/iso2/avc1)
File size                                : 163 MiB
Duration                                 : 3 min 21 s
Overall bit rate                         : 6 760 kb/s
Frame rate                               : 23.976 FPS
Movie name                               : Balloon in Love
Performer                                : SUNMI
Genre                                    : K-Pop
ContentType                              : Music Video
Recorded date                            : 2024-06-13 07:00:00 UTC
Copyright                                : ℗ 2024 Abyss Company
Cover                                    : Yes
Rating                                   : None
GenreID                                  : 1686
AppleStoreCountry                        : United States
AlbumTitleID                             : 693899983
AppleStoreCatalogID                      : 1750814095

Video
ID                                       : 1
Format                                   : AVC
Format/Info                              : Advanced Video Codec
Format profile                           : High@L4
Format settings                          : CABAC / 4 Ref Frames
Format settings, CABAC                   : Yes
Format settings, Reference frames        : 4 frames
Format settings, Slice count             : 8 slices per frame
Codec ID                                 : avc1
Codec ID/Info                            : Advanced Video Coding
Duration                                 : 3 min 21 s
Bit rate                                 : 6 494 kb/s
Width                                    : 1 920 pixels
Height                                   : 1 080 pixels
Display aspect ratio                     : 16:9
Frame rate mode                          : Constant
Frame rate                               : 23.976 (24000/1001) FPS
Color space                              : YUV
Chroma subsampling                       : 4:2:0
Bit depth                                : 8 bits
Scan type                                : Progressive
Bits/(Pixel*Frame)                       : 0.131
Stream size                              : 156 MiB (96%)
Title                                    : Core Media Video
Color range                              : Limited
Color primaries                          : BT.709
Transfer characteristics                 : BT.709
Matrix coefficients                      : BT.709
Codec configuration box                  : avcC

Audio
ID                                       : 2
Format                                   : AAC LC
Format/Info                              : Advanced Audio Codec Low Complexity
Codec ID                                 : 2 / 40 / mp4a-40-2
Duration                                 : 3 min 21 s
Bit rate mode                            : Constant
Bit rate                                 : 251 kb/s
Channel(s)                               : 2 channels
Channel layout                           : L R
Sampling rate                            : 48.0 kHz
Frame rate                               : 46.875 FPS (1024 SPF)
Compression mode                         : Lossy
Stream size                              : 6.04 MiB (4%)
Title                                    : Core Media Audio
Default                                  : Yes
Alternate group                          : 1

</pre>
</div><div style="text-align: center">​</div></div>
</div><div style="text-align: center"><br>
<div class="bbCodeBlock bbCodeVfcHH HiddenContent">
<div class="attribution type">Hidden Content:</div>
<blockquote>You must reply before you can see the hidden data contained here.</blockquote>
</div><img src="https://i.ibb.co/t2kGr6h/gifit-1718326654129.gif" class="bbCodeImage LbImage" alt="[​IMG]" data-url="https://i.ibb.co/t2kGr6h/gifit-1718326654129.gif" style="">​</div>
<div class="messageTextEndMarker">&nbsp;</div>
</blockquote>
</article>]]></description>
                <author><![CDATA[fstambuk]]></author>
                </item>

                
                <item>
                <title><![CDATA[【Apple Music】WEB-RiP - SOFI TUKKER - Spiral 'Apple.Music.Web.1080-fstambuk']]></title>
                <link><![CDATA[https://sharemania.us/threads/sofi-tukker-spiral-apple-music-web-1080-fstambuk.246894/]]></link>
                <description><![CDATA[<article>
<blockquote class="messageText SelectQuoteContainer ugc baseHtml">
<div style="text-align: center"><img src="https://i.ibb.co/4402BNf/SOFI-TUKKER-Spiral-Apple-Music-Web-1080-fstambuk-VTM.gif" class="bbCodeImage LbImage" alt="[​IMG]" data-url="https://i.ibb.co/4402BNf/SOFI-TUKKER-Spiral-Apple-Music-Web-1080-fstambuk-VTM.gif" style=""><br>
​</div>
<div class="ToggleTriggerAnchor bbCodeSpoilerContainer">
<button type="button" class="button bbCodeSpoilerButton ToggleTrigger Tooltip JsOnly" data-target="> .SpoilerTarget"><span>Spoiler: <span class="SpoilerTitle">Apple Music</span></span></button>
<div class="SpoilerTarget bbCodeSpoilerText">
<div class="bbCodeBlock bbCodeCode">
<div class="type">Code:</div>
<pre>General
Complete name                            : SOFI TUKKER - Spiral 'Apple.Music.Web.1080-fstambuk'.m4v
Format                                   : MPEG-4
Codec ID                                 : M4V  (M4V /isom/iso2/avc1)
File size                                : 175 MiB
Duration                                 : 3 min 35 s
Overall bit rate                         : 6 813 kb/s
Frame rate                               : 23.976 FPS
Movie name                               : Spiral
Performer                                : Sofi Tukker
Genre                                    : Dance
ContentType                              : Music Video
Recorded date                            : 2024-06-12 07:00:00 UTC
Copyright                                : ℗ 2024 SOFI TUKKER, LLC
Cover                                    : Yes
Rating                                   : None
GenreID                                  : 1617
AppleStoreCountry                        : United States
AlbumTitleID                             : 998656537
AppleStoreCatalogID                      : 1750396469

Video
ID                                       : 1
Format                                   : AVC
Format/Info                              : Advanced Video Codec
Format profile                           : High@L4
Format settings                          : CABAC / 4 Ref Frames
Format settings, CABAC                   : Yes
Format settings, Reference frames        : 4 frames
Format settings, Slice count             : 8 slices per frame
Codec ID                                 : avc1
Codec ID/Info                            : Advanced Video Coding
Duration                                 : 3 min 35 s
Bit rate                                 : 6 537 kb/s
Width                                    : 1 572 pixels
Height                                   : 1 080 pixels
Display aspect ratio                     : 3:2
Frame rate mode                          : Constant
Frame rate                               : 23.976 (24000/1001) FPS
Color space                              : YUV
Chroma subsampling                       : 4:2:0
Bit depth                                : 8 bits
Scan type                                : Progressive
Bits/(Pixel*Frame)                       : 0.161
Stream size                              : 168 MiB (96%)
Title                                    : Core Media Video
Color range                              : Limited
Color primaries                          : BT.709
Transfer characteristics                 : BT.709
Matrix coefficients                      : BT.709
Codec configuration box                  : avcC

Audio
ID                                       : 2
Format                                   : AAC LC
Format/Info                              : Advanced Audio Codec Low Complexity
Codec ID                                 : 2 / 40 / mp4a-40-2
Duration                                 : 3 min 35 s
Bit rate mode                            : Constant
Bit rate                                 : 258 kb/s
Channel(s)                               : 2 channels
Channel layout                           : L R
Sampling rate                            : 48.0 kHz
Frame rate                               : 46.875 FPS (1024 SPF)
Compression mode                         : Lossy
Stream size                              : 6.64 MiB (4%)
Title                                    : Core Media Audio
Default                                  : Yes
Alternate group                          : 1

</pre>
</div><div style="text-align: center">​</div></div>
</div><div style="text-align: center">
<div class="bbCodeBlock bbCodeVfcHH HiddenContent">
<div class="attribution type">Hidden Content:</div>
<blockquote>You must reply before you can see the hidden data contained here.</blockquote>
</div><img src="https://i.ibb.co/fd741Z9/gifit-1718322473033.gif" class="bbCodeImage LbImage" alt="[​IMG]" data-url="https://i.ibb.co/fd741Z9/gifit-1718322473033.gif" style=""><br>
​</div>
<div class="messageTextEndMarker">&nbsp;</div>
</blockquote>
</article>]]></description>
                <author><![CDATA[fstambuk]]></author>
                </item>

                
                <item>
                <title><![CDATA[【Unreleased/Unofficial (lossless)】WAV - Brit Smith - Karma's A Bitch (Jojostrumental Mix) [24bit/48kHz] (3:44)]]></title>
                <link><![CDATA[https://sharemania.us/threads/brit-smith-karmas-a-bitch-jojostrumental-mix-24bit-48khz-3-44.246896/]]></link>
                <description><![CDATA[<article>
<blockquote class="messageText SelectQuoteContainer ugc baseHtml">
<img src="https://i.imgur.com/zxmJ2Cq.jpeg" class="bbCodeImage LbImage" alt="[​IMG]" data-url="https://i.imgur.com/zxmJ2Cq.jpeg" style=""> <br>
<span style="font-size: 18px"><b>Brit Smith - Karma's A Bitch (The Jojostrumental Mix)</b></span><br>
<ul>
<li>Format: WAV</li>
<li>Sample Rate: 24-Bit / 48 kHz</li>
</ul>I know I know - I am not the first person to think of this idea / do this mix / etc. This is not an original concept. <br>
However, after listening to a few other mixes they were either not full length duration to Brit's version (3:44) or their vocals were less than optimal (either had leftover drum pieces poking thru in the quiet parts at the beginning or vocals sounded very filtered). <br>
This mix I've made has the cleanest, clearest vocals, it is full length, and I've touched Brit's vocals up a bit to match the more modern production of Jojo / DJ White Shadow's version.<br>
<br>
<div class="bbCodeBlock bbCodeVfcHH HiddenContent">
<div class="attribution type">Hidden Content:</div>
<blockquote>You must reply before you can see the hidden data contained here.</blockquote>
</div>Enjoy! <img src="styles/default/xenforo/smilies/big_smile-48.png" class="mceSmilie" alt=":)" title="Smile    :)">
<div class="messageTextEndMarker">&nbsp;</div>
</blockquote>
</article>]]></description>
                <author><![CDATA[Mix-N-Mash Music]]></author>
                </item>

                
                <item>
                <title><![CDATA[【Albums (lossless)】FLAC - Brandy (Tidal) Albums | Work in Progress]]></title>
                <link><![CDATA[https://sharemania.us/threads/brandy-tidal-albums-work-in-progress.246895/]]></link>
                <description><![CDATA[<article>
<blockquote class="messageText SelectQuoteContainer ugc baseHtml">
thanks!
<div class="messageTextEndMarker">&nbsp;</div>
</blockquote>
</article>]]></description>
                <author><![CDATA[Kweennayy]]></author>
                </item>

                
                <item>
                <title><![CDATA[【Albums (lossy)】MP3 - Normani - Dopamine (Explicit)]]></title>
                <link><![CDATA[https://sharemania.us/threads/normani-dopamine-explicit.246893/]]></link>
                <description><![CDATA[<article>
<blockquote class="messageText SelectQuoteContainer ugc baseHtml">
<img src="https://resources.tidal.com/images/d91cba1e/b77c/4972/8f49/848c823192af/640x640.jpg" class="bbCodeImage LbImage" alt="[​IMG]" data-url="https://resources.tidal.com/images/d91cba1e/b77c/4972/8f49/848c823192af/640x640.jpg" style=""><br>
<div class="bbCodeBlock bbCodeVfcHH HiddenContent">
<div class="attribution type">Hidden Content:</div>
<blockquote>You must either reply or click 'Like' to see the hidden information contained here.</blockquote>
</div><img src="https://resources.tidal.com/images/d039ba31/012f/4e0d/b66e/0e5f04a4cdfb/640x640.jpg" class="bbCodeImage LbImage" alt="[​IMG]" data-url="https://resources.tidal.com/images/d039ba31/012f/4e0d/b66e/0e5f04a4cdfb/640x640.jpg" style=""><br>
<div class="bbCodeBlock bbCodeVfcHH HiddenContent">
<div class="attribution type">Hidden Content:</div>
<blockquote>You must either reply or click 'Like' to see the hidden information contained here.</blockquote>
</div><img src="https://resources.tidal.com/images/ebd1c87c/d7fb/404e/8baf/a790def67d2d/640x640.jpg" class="bbCodeImage LbImage" alt="[​IMG]" data-url="https://resources.tidal.com/images/ebd1c87c/d7fb/404e/8baf/a790def67d2d/640x640.jpg" style="">
<div class="bbCodeBlock bbCodeVfcHH HiddenContent">
<div class="attribution type">Hidden Content:</div>
<blockquote>You must either reply or click 'Like' to see the hidden information contained here.</blockquote>
</div><img src="https://resources.tidal.com/images/e75ce32d/4aa9/4966/9728/8c2c1e3ea396/640x640.jpg" class="bbCodeImage LbImage" alt="[​IMG]" data-url="https://resources.tidal.com/images/e75ce32d/4aa9/4966/9728/8c2c1e3ea396/640x640.jpg" style=""><br>
<div class="bbCodeBlock bbCodeVfcHH HiddenContent">
<div class="attribution type">Hidden Content:</div>
<blockquote>You must either reply or click 'Like' to see the hidden information contained here.</blockquote>
</div><img src="https://resources.tidal.com/images/54924e77/ed89/43d9/8315/d49f51c9c714/640x640.jpg" class="bbCodeImage LbImage" alt="[​IMG]" data-url="https://resources.tidal.com/images/54924e77/ed89/43d9/8315/d49f51c9c714/640x640.jpg" style=""> <br>
<div class="bbCodeBlock bbCodeVfcHH HiddenContent">
<div class="attribution type">Hidden Content:</div>
<blockquote>You must either reply or click 'Like' to see the hidden information contained here.</blockquote>
</div>
<div class="messageTextEndMarker">&nbsp;</div>
</blockquote>
</article>]]></description>
                <author><![CDATA[Kweennayy]]></author>
                </item>

                
                <item>
                <title><![CDATA[【Unreleased/Unofficial (lossless)】WAV - Brit Smith - Karma's A Bitch (Hybrid [2012+2024] Instrumental Mix) [24bit/48kHz]]]></title>
                <link><![CDATA[https://sharemania.us/threads/brit-smith-karmas-a-bitch-hybrid-2012-2024-instrumental-mix-24bit-48khz.246897/]]></link>
                <description><![CDATA[<article>
<blockquote class="messageText SelectQuoteContainer ugc baseHtml">
<img src="https://static.qobuz.com/images/covers/rb/73/b27rokqjz73rb_600.jpg" class="bbCodeImage LbImage" alt="[​IMG]" data-url="https://static.qobuz.com/images/covers/rb/73/b27rokqjz73rb_600.jpg" style=""> <br>
<div class="bbCodeBlock bbCodeVfcHH HiddenContent">
<div class="attribution type">Hidden Content:</div>
<blockquote>You must either reply or click 'Like' to see the hidden information contained here.</blockquote>
</div>
<div class="messageTextEndMarker">&nbsp;</div>
</blockquote>
</article>]]></description>
                <author><![CDATA[Mix-N-Mash Music]]></author>
                </item>

                </channel></rss>